<svg width="1363" height="163" viewBox="0 0 1363 163" fill="none" xmlns="http://www.w3.org/2000/svg">
<path d="M0 15C0 6.71573 6.71573 0 15 0H37V163H15C6.71573 163 0 156.284 0 148V15Z" fill="#182E59"/>
<rect width="1097" height="163" transform="translate(37)" fill="#F0F0F0"/>
<path d="M101.906 53.9219L94.3945 51.2383V48.0859L104.602 52.375V54.6367L101.906 53.9219ZM94.3945 56.1719L101.918 53.4297L104.602 52.7852V55.0352L94.3945 59.3242V56.1719ZM126.914 52.0703V52.8789C126.914 54.1758 126.738 55.3398 126.387 56.3711C126.035 57.4023 125.539 58.2812 124.898 59.0078C124.258 59.7266 123.492 60.2773 122.602 60.6602C121.719 61.043 120.738 61.2344 119.66 61.2344C118.59 61.2344 117.609 61.043 116.719 60.6602C115.836 60.2773 115.07 59.7266 114.422 59.0078C113.773 58.2812 113.27 57.4023 112.91 56.3711C112.559 55.3398 112.383 54.1758 112.383 52.8789V52.0703C112.383 50.7656 112.559 49.6016 112.91 48.5781C113.262 47.5469 113.758 46.668 114.398 45.9414C115.047 45.2148 115.812 44.6602 116.695 44.2773C117.586 43.8945 118.566 43.7031 119.637 43.7031C120.715 43.7031 121.695 43.8945 122.578 44.2773C123.469 44.6602 124.234 45.2148 124.875 45.9414C125.523 46.668 126.023 47.5469 126.375 48.5781C126.734 49.6016 126.914 50.7656 126.914 52.0703ZM123.363 52.8789V52.0469C123.363 51.1406 123.281 50.3438 123.117 49.6562C122.953 48.9688 122.711 48.3906 122.391 47.9219C122.07 47.4531 121.68 47.1016 121.219 46.8672C120.758 46.625 120.23 46.5039 119.637 46.5039C119.043 46.5039 118.516 46.625 118.055 46.8672C117.602 47.1016 117.215 47.4531 116.895 47.9219C116.582 48.3906 116.344 48.9688 116.18 49.6562C116.016 50.3438 115.934 51.1406 115.934 52.0469V52.8789C115.934 53.7773 116.016 54.5742 116.18 55.2695C116.344 55.957 116.586 56.5391 116.906 57.0156C117.227 57.4844 117.617 57.8398 118.078 58.082C118.539 58.3242 119.066 58.4453 119.66 58.4453C120.254 58.4453 120.781 58.3242 121.242 58.082C121.703 57.8398 122.09 57.4844 122.402 57.0156C122.715 56.5391 122.953 55.957 123.117 55.2695C123.281 54.5742 123.363 53.7773 123.363 52.8789ZM132.539 51.0273V61H129.164V48.3203H132.328L132.539 51.0273ZM132.047 54.2148H131.133C131.133 53.2773 131.254 52.4336 131.496 51.6836C131.738 50.9258 132.078 50.2812 132.516 49.75C132.953 49.2109 133.473 48.8008 134.074 48.5195C134.684 48.2305 135.363 48.0859 136.113 48.0859C136.707 48.0859 137.25 48.1719 137.742 48.3438C138.234 48.5156 138.656 48.7891 139.008 49.1641C139.367 49.5391 139.641 50.0352 139.828 50.6523C140.023 51.2695 140.121 52.0234 140.121 52.9141V61H136.723V52.9023C136.723 52.3398 136.645 51.9023 136.488 51.5898C136.332 51.2773 136.102 51.0586 135.797 50.9336C135.5 50.8008 135.133 50.7344 134.695 50.7344C134.242 50.7344 133.848 50.8242 133.512 51.0039C133.184 51.1836 132.91 51.4336 132.691 51.7539C132.48 52.0664 132.32 52.4336 132.211 52.8555C132.102 53.2773 132.047 53.7305 132.047 54.2148ZM148.523 61.2344C147.539 61.2344 146.656 61.0781 145.875 60.7656C145.094 60.4453 144.43 60.0039 143.883 59.4414C143.344 58.8789 142.93 58.2266 142.641 57.4844C142.352 56.7344 142.207 55.9375 142.207 55.0938V54.625C142.207 53.6641 142.344 52.7852 142.617 51.9883C142.891 51.1914 143.281 50.5 143.789 49.9141C144.305 49.3281 144.93 48.8789 145.664 48.5664C146.398 48.2461 147.227 48.0859 148.148 48.0859C149.047 48.0859 149.844 48.2344 150.539 48.5312C151.234 48.8281 151.816 49.25 152.285 49.7969C152.762 50.3438 153.121 51 153.363 51.7656C153.605 52.5234 153.727 53.3672 153.727 54.2969V55.7031H143.648V53.4531H150.41V53.1953C150.41 52.7266 150.324 52.3086 150.152 51.9414C149.988 51.5664 149.738 51.2695 149.402 51.0508C149.066 50.832 148.637 50.7227 148.113 50.7227C147.668 50.7227 147.285 50.8203 146.965 51.0156C146.645 51.2109 146.383 51.4844 146.18 51.8359C145.984 52.1875 145.836 52.6016 145.734 53.0781C145.641 53.5469 145.594 54.0625 145.594 54.625V55.0938C145.594 55.6016 145.664 56.0703 145.805 56.5C145.953 56.9297 146.16 57.3008 146.426 57.6133C146.699 57.9258 147.027 58.168 147.41 58.3398C147.801 58.5117 148.242 58.5977 148.734 58.5977C149.344 58.5977 149.91 58.4805 150.434 58.2461C150.965 58.0039 151.422 57.6406 151.805 57.1562L153.445 58.9375C153.18 59.3203 152.816 59.6875 152.355 60.0391C151.902 60.3906 151.355 60.6797 150.715 60.9062C150.074 61.125 149.344 61.2344 148.523 61.2344ZM159.211 48.3203V61H155.824V48.3203H159.211ZM155.613 45.0156C155.613 44.5234 155.785 44.1172 156.129 43.7969C156.473 43.4766 156.934 43.3164 157.512 43.3164C158.082 43.3164 158.539 43.4766 158.883 43.7969C159.234 44.1172 159.41 44.5234 159.41 45.0156C159.41 45.5078 159.234 45.9141 158.883 46.2344C158.539 46.5547 158.082 46.7148 157.512 46.7148C156.934 46.7148 156.473 46.5547 156.129 46.2344C155.785 45.9141 155.613 45.5078 155.613 45.0156ZM165.375 51.0859V61H162V48.3203H165.176L165.375 51.0859ZM169.195 48.2383L169.137 51.3672C168.973 51.3438 168.773 51.3242 168.539 51.3086C168.312 51.2852 168.105 51.2734 167.918 51.2734C167.441 51.2734 167.027 51.3359 166.676 51.4609C166.332 51.5781 166.043 51.7539 165.809 51.9883C165.582 52.2227 165.41 52.5078 165.293 52.8438C165.184 53.1797 165.121 53.5625 165.105 53.9922L164.426 53.7812C164.426 52.9609 164.508 52.207 164.672 51.5195C164.836 50.8242 165.074 50.2188 165.387 49.7031C165.707 49.1875 166.098 48.7891 166.559 48.5078C167.02 48.2266 167.547 48.0859 168.141 48.0859C168.328 48.0859 168.52 48.1016 168.715 48.1328C168.91 48.1562 169.07 48.1914 169.195 48.2383ZM177.938 46.8555L173.297 61H169.559L175.898 43.9375H178.277L177.938 46.8555ZM181.793 61L177.141 46.8555L176.766 43.9375H179.168L185.543 61H181.793ZM181.582 54.6484V57.4023H172.57V54.6484H181.582ZM190.477 48.3203V61H187.09V48.3203H190.477ZM186.879 45.0156C186.879 44.5234 187.051 44.1172 187.395 43.7969C187.738 43.4766 188.199 43.3164 188.777 43.3164C189.348 43.3164 189.805 43.4766 190.148 43.7969C190.5 44.1172 190.676 44.5234 190.676 45.0156C190.676 45.5078 190.5 45.9141 190.148 46.2344C189.805 46.5547 189.348 46.7148 188.777 46.7148C188.199 46.7148 187.738 46.5547 187.395 46.2344C187.051 45.9141 186.879 45.5078 186.879 45.0156Z" fill="#888888"/>
<path d="M109.219 107.422H100.734V101.07H109.219C110.375 101.07 111.312 100.875 112.031 100.484C112.75 100.094 113.273 99.5547 113.602 98.8672C113.945 98.1641 114.117 97.375 114.117 96.5C114.117 95.5625 113.945 94.6953 113.602 93.8984C113.273 93.1016 112.75 92.4609 112.031 91.9766C111.312 91.4766 110.375 91.2266 109.219 91.2266H103.828V119H95.6016V84.875H109.219C111.953 84.875 114.305 85.375 116.273 86.375C118.258 87.375 119.781 88.75 120.844 90.5C121.906 92.2344 122.438 94.2188 122.438 96.4531C122.438 98.6562 121.906 100.578 120.844 102.219C119.781 103.859 118.258 105.141 116.273 106.062C114.305 106.969 111.953 107.422 109.219 107.422ZM134.461 99.9219V119H126.562V93.6406H133.945L134.461 99.9219ZM141.961 93.4531L141.82 100.789C141.508 100.758 141.086 100.719 140.555 100.672C140.023 100.625 139.578 100.602 139.219 100.602C138.297 100.602 137.5 100.711 136.828 100.93C136.172 101.133 135.625 101.445 135.188 101.867C134.766 102.273 134.453 102.789 134.25 103.414C134.062 104.039 133.977 104.766 133.992 105.594L132.562 104.656C132.562 102.953 132.727 101.406 133.055 100.016C133.398 98.6094 133.883 97.3984 134.508 96.3828C135.133 95.3516 135.891 94.5625 136.781 94.0156C137.672 93.4531 138.672 93.1719 139.781 93.1719C140.172 93.1719 140.555 93.1953 140.93 93.2422C141.32 93.2891 141.664 93.3594 141.961 93.4531ZM142.852 106.578V106.086C142.852 104.227 143.117 102.516 143.648 100.953C144.18 99.375 144.961 98.0078 145.992 96.8516C147.023 95.6953 148.297 94.7969 149.812 94.1562C151.328 93.5 153.078 93.1719 155.062 93.1719C157.062 93.1719 158.82 93.5 160.336 94.1562C161.867 94.7969 163.148 95.6953 164.18 96.8516C165.211 98.0078 165.992 99.375 166.523 100.953C167.055 102.516 167.32 104.227 167.32 106.086V106.578C167.32 108.422 167.055 110.133 166.523 111.711C165.992 113.273 165.211 114.641 164.18 115.812C163.148 116.969 161.875 117.867 160.359 118.508C158.844 119.148 157.094 119.469 155.109 119.469C153.125 119.469 151.367 119.148 149.836 118.508C148.305 117.867 147.023 116.969 145.992 115.812C144.961 114.641 144.18 113.273 143.648 111.711C143.117 110.133 142.852 108.422 142.852 106.578ZM150.75 106.086V106.578C150.75 107.531 150.82 108.422 150.961 109.25C151.102 110.078 151.336 110.805 151.664 111.43C151.992 112.039 152.438 112.516 153 112.859C153.562 113.203 154.266 113.375 155.109 113.375C155.938 113.375 156.625 113.203 157.172 112.859C157.734 112.516 158.18 112.039 158.508 111.43C158.836 110.805 159.07 110.078 159.211 109.25C159.352 108.422 159.422 107.531 159.422 106.578V106.086C159.422 105.164 159.352 104.297 159.211 103.484C159.07 102.656 158.836 101.93 158.508 101.305C158.18 100.664 157.734 100.164 157.172 99.8047C156.609 99.4453 155.906 99.2656 155.062 99.2656C154.234 99.2656 153.539 99.4453 152.977 99.8047C152.43 100.164 151.992 100.664 151.664 101.305C151.336 101.93 151.102 102.656 150.961 103.484C150.82 104.297 150.75 105.164 150.75 106.086ZM184.195 93.6406V99.125H168.914V93.6406H184.195ZM172.125 87.3359H180.023V110.727C180.023 111.398 180.102 111.922 180.258 112.297C180.414 112.656 180.68 112.914 181.055 113.07C181.445 113.211 181.961 113.281 182.602 113.281C183.055 113.281 183.43 113.273 183.727 113.258C184.023 113.227 184.305 113.188 184.57 113.141V118.789C183.898 119.008 183.195 119.172 182.461 119.281C181.727 119.406 180.945 119.469 180.117 119.469C178.43 119.469 176.984 119.203 175.781 118.672C174.594 118.141 173.688 117.305 173.062 116.164C172.438 115.023 172.125 113.539 172.125 111.711V87.3359ZM185.648 106.578V106.086C185.648 104.227 185.914 102.516 186.445 100.953C186.977 99.375 187.758 98.0078 188.789 96.8516C189.82 95.6953 191.094 94.7969 192.609 94.1562C194.125 93.5 195.875 93.1719 197.859 93.1719C199.859 93.1719 201.617 93.5 203.133 94.1562C204.664 94.7969 205.945 95.6953 206.977 96.8516C208.008 98.0078 208.789 99.375 209.32 100.953C209.852 102.516 210.117 104.227 210.117 106.086V106.578C210.117 108.422 209.852 110.133 209.32 111.711C208.789 113.273 208.008 114.641 206.977 115.812C205.945 116.969 204.672 117.867 203.156 118.508C201.641 119.148 199.891 119.469 197.906 119.469C195.922 119.469 194.164 119.148 192.633 118.508C191.102 117.867 189.82 116.969 188.789 115.812C187.758 114.641 186.977 113.273 186.445 111.711C185.914 110.133 185.648 108.422 185.648 106.578ZM193.547 106.086V106.578C193.547 107.531 193.617 108.422 193.758 109.25C193.898 110.078 194.133 110.805 194.461 111.43C194.789 112.039 195.234 112.516 195.797 112.859C196.359 113.203 197.062 113.375 197.906 113.375C198.734 113.375 199.422 113.203 199.969 112.859C200.531 112.516 200.977 112.039 201.305 111.43C201.633 110.805 201.867 110.078 202.008 109.25C202.148 108.422 202.219 107.531 202.219 106.578V106.086C202.219 105.164 202.148 104.297 202.008 103.484C201.867 102.656 201.633 101.93 201.305 101.305C200.977 100.664 200.531 100.164 199.969 99.8047C199.406 99.4453 198.703 99.2656 197.859 99.2656C197.031 99.2656 196.336 99.4453 195.773 99.8047C195.227 100.164 194.789 100.664 194.461 101.305C194.133 101.93 193.898 102.656 193.758 103.484C193.617 104.297 193.547 105.164 193.547 106.086ZM226.992 93.6406V99.125H211.711V93.6406H226.992ZM214.922 87.3359H222.82V110.727C222.82 111.398 222.898 111.922 223.055 112.297C223.211 112.656 223.477 112.914 223.852 113.07C224.242 113.211 224.758 113.281 225.398 113.281C225.852 113.281 226.227 113.273 226.523 113.258C226.82 113.227 227.102 113.188 227.367 113.141V118.789C226.695 119.008 225.992 119.172 225.258 119.281C224.523 119.406 223.742 119.469 222.914 119.469C221.227 119.469 219.781 119.203 218.578 118.672C217.391 118.141 216.484 117.305 215.859 116.164C215.234 115.023 214.922 113.539 214.922 111.711V87.3359ZM237.914 116.023L244.477 93.6406H252.961L242.766 122.773C242.547 123.414 242.258 124.102 241.898 124.836C241.539 125.586 241.047 126.297 240.422 126.969C239.797 127.641 238.992 128.188 238.008 128.609C237.039 129.031 235.836 129.242 234.398 129.242C233.633 129.242 233.07 129.203 232.711 129.125C232.367 129.062 231.836 128.945 231.117 128.773V123.125C231.32 123.125 231.492 123.125 231.633 123.125C231.789 123.125 231.961 123.125 232.148 123.125C232.992 123.125 233.664 123.039 234.164 122.867C234.68 122.695 235.07 122.445 235.336 122.117C235.617 121.789 235.836 121.391 235.992 120.922L237.914 116.023ZM236.25 93.6406L241.242 111.383L242.109 119.75H236.812L227.789 93.6406H236.25ZM262.992 98.5156V128.75H255.094V93.6406H262.453L262.992 98.5156ZM278.555 106.016V106.508C278.555 108.352 278.344 110.062 277.922 111.641C277.5 113.219 276.875 114.594 276.047 115.766C275.219 116.938 274.188 117.852 272.953 118.508C271.734 119.148 270.32 119.469 268.711 119.469C267.195 119.469 265.891 119.133 264.797 118.461C263.703 117.789 262.789 116.859 262.055 115.672C261.32 114.484 260.727 113.125 260.273 111.594C259.82 110.062 259.461 108.445 259.195 106.742V106.109C259.461 104.281 259.82 102.586 260.273 101.023C260.727 99.4453 261.32 98.0703 262.055 96.8984C262.789 95.7266 263.695 94.8125 264.773 94.1562C265.867 93.5 267.172 93.1719 268.688 93.1719C270.297 93.1719 271.711 93.4766 272.93 94.0859C274.164 94.6953 275.195 95.5703 276.023 96.7109C276.867 97.8359 277.5 99.1875 277.922 100.766C278.344 102.344 278.555 104.094 278.555 106.016ZM270.656 106.508V106.016C270.656 105.031 270.586 104.133 270.445 103.32C270.305 102.492 270.078 101.773 269.766 101.164C269.469 100.555 269.07 100.086 268.57 99.7578C268.07 99.4297 267.453 99.2656 266.719 99.2656C265.875 99.2656 265.164 99.3984 264.586 99.6641C264.023 99.9141 263.57 100.305 263.227 100.836C262.898 101.352 262.664 102 262.523 102.781C262.398 103.547 262.344 104.445 262.359 105.477V107.398C262.328 108.586 262.445 109.633 262.711 110.539C262.977 111.43 263.438 112.125 264.094 112.625C264.75 113.125 265.641 113.375 266.766 113.375C267.516 113.375 268.141 113.203 268.641 112.859C269.141 112.5 269.539 112.008 269.836 111.383C270.133 110.742 270.344 110.008 270.469 109.18C270.594 108.352 270.656 107.461 270.656 106.508ZM290.414 93.6406V119H282.492V93.6406H290.414ZM282.023 87.1016C282.023 85.9766 282.43 85.0547 283.242 84.3359C284.055 83.6172 285.109 83.2578 286.406 83.2578C287.703 83.2578 288.758 83.6172 289.57 84.3359C290.383 85.0547 290.789 85.9766 290.789 87.1016C290.789 88.2266 290.383 89.1484 289.57 89.8672C288.758 90.5859 287.703 90.9453 286.406 90.9453C285.109 90.9453 284.055 90.5859 283.242 89.8672C282.43 89.1484 282.023 88.2266 282.023 87.1016ZM303.047 99.0547V119H295.148V93.6406H302.555L303.047 99.0547ZM302.109 105.453L300.258 105.5C300.258 103.562 300.492 101.836 300.961 100.32C301.43 98.7891 302.094 97.4922 302.953 96.4297C303.812 95.3672 304.836 94.5625 306.023 94.0156C307.227 93.4531 308.562 93.1719 310.031 93.1719C311.203 93.1719 312.273 93.3438 313.242 93.6875C314.227 94.0312 315.07 94.5859 315.773 95.3516C316.492 96.1172 317.039 97.1328 317.414 98.3984C317.805 99.6484 318 101.195 318 103.039V119H310.055V103.016C310.055 102 309.914 101.227 309.633 100.695C309.352 100.148 308.945 99.7734 308.414 99.5703C307.883 99.3672 307.234 99.2656 306.469 99.2656C305.656 99.2656 304.969 99.4219 304.406 99.7344C303.844 100.047 303.391 100.484 303.047 101.047C302.719 101.594 302.477 102.242 302.32 102.992C302.18 103.742 302.109 104.562 302.109 105.453ZM338.32 93.6406H345.492V118.016C345.492 120.359 344.953 122.344 343.875 123.969C342.797 125.609 341.289 126.852 339.352 127.695C337.43 128.555 335.18 128.984 332.602 128.984C331.461 128.984 330.297 128.836 329.109 128.539C327.922 128.258 326.812 127.836 325.781 127.273C324.75 126.711 323.883 126.016 323.18 125.188L326.484 120.547C327.125 121.266 327.93 121.875 328.898 122.375C329.867 122.891 331.008 123.148 332.32 123.148C333.461 123.148 334.414 122.945 335.18 122.539C335.961 122.133 336.555 121.539 336.961 120.758C337.367 119.992 337.57 119.062 337.57 117.969V99.6406L338.32 93.6406ZM321.469 106.625V106.133C321.469 104.211 321.703 102.461 322.172 100.883C322.656 99.2891 323.344 97.9219 324.234 96.7812C325.141 95.625 326.234 94.7344 327.516 94.1094C328.797 93.4844 330.242 93.1719 331.852 93.1719C333.586 93.1719 335.008 93.5078 336.117 94.1797C337.242 94.8359 338.141 95.7578 338.812 96.9453C339.5 98.1328 340.031 99.5234 340.406 101.117C340.797 102.695 341.125 104.398 341.391 106.227V106.812C341.125 108.531 340.758 110.156 340.289 111.688C339.836 113.203 339.242 114.547 338.508 115.719C337.773 116.891 336.852 117.812 335.742 118.484C334.648 119.141 333.336 119.469 331.805 119.469C330.211 119.469 328.773 119.148 327.492 118.508C326.227 117.867 325.141 116.969 324.234 115.812C323.344 114.656 322.656 113.297 322.172 111.734C321.703 110.172 321.469 108.469 321.469 106.625ZM329.367 106.133V106.625C329.367 107.578 329.453 108.461 329.625 109.273C329.812 110.086 330.094 110.805 330.469 111.43C330.844 112.039 331.305 112.516 331.852 112.859C332.414 113.203 333.07 113.375 333.82 113.375C334.961 113.375 335.883 113.133 336.586 112.648C337.289 112.164 337.797 111.477 338.109 110.586C338.422 109.695 338.555 108.648 338.508 107.445V105.594C338.539 104.562 338.469 103.656 338.297 102.875C338.125 102.078 337.852 101.414 337.477 100.883C337.117 100.352 336.633 99.9531 336.023 99.6875C335.43 99.4062 334.711 99.2656 333.867 99.2656C333.133 99.2656 332.484 99.4375 331.922 99.7812C331.359 100.125 330.891 100.609 330.516 101.234C330.141 101.844 329.852 102.57 329.648 103.414C329.461 104.242 329.367 105.148 329.367 106.133Z" fill="black"/>
<path d="M1134 0H1348C1356.28 0 1363 6.71573 1363 15V148C1363 156.284 1356.28 163 1348 163H1134V0Z" fill="#182E59"/>
<path fill-rule="evenodd" clip-rule="evenodd" d="M1202.75 46.5018C1202.75 45.3973 1203.65 44.5018 1204.75 44.5018H1292.25C1293.35 44.5018 1294.25 45.3973 1294.25 46.5018V116.498C1294.25 117.603 1293.35 118.498 1292.25 118.498H1204.75C1203.65 118.498 1202.75 117.603 1202.75 116.498V46.5018ZM1206.75 48.5018V52.9963H1290.25V48.5018H1206.75ZM1290.25 56.9963H1235.19V114.498H1290.25V56.9963ZM1231.19 114.498V56.9963H1206.75V114.498H1231.19Z" fill="white"/>
<path fill-rule="evenodd" clip-rule="evenodd" d="M1209.72 62.3022C1209.72 61.1976 1210.62 60.3022 1211.72 60.3022H1225.72C1226.83 60.3022 1227.72 61.1976 1227.72 62.3022V81.6974C1227.72 82.802 1226.83 83.6974 1225.72 83.6974H1211.72C1210.62 83.6974 1209.72 82.802 1209.72 81.6974V62.3022ZM1213.72 64.3022V79.6974H1223.72V64.3022H1213.72ZM1239.33 63.1982C1239.33 62.0936 1240.22 61.1982 1241.33 61.1982H1284.25C1285.36 61.1982 1286.25 62.0936 1286.25 63.1982V109.407C1286.25 110.511 1285.36 111.407 1284.25 111.407H1241.33C1240.22 111.407 1239.33 110.511 1239.33 109.407V63.1982ZM1243.33 65.1982V107.407H1282.25V65.1982H1243.33ZM1209.56 93.4381C1209.56 92.3336 1210.46 91.4381 1211.56 91.4381H1220.48C1221.59 91.4381 1222.48 92.3336 1222.48 93.4381C1222.48 94.5427 1221.59 95.4381 1220.48 95.4381H1211.56C1210.46 95.4381 1209.56 94.5427 1209.56 93.4381ZM1209.56 100.438C1209.56 99.3335 1210.46 98.4381 1211.56 98.4381H1226.1C1227.21 98.4381 1228.1 99.3335 1228.1 100.438C1228.1 101.543 1227.21 102.438 1226.1 102.438H1211.56C1210.46 102.438 1209.56 101.543 1209.56 100.438ZM1209.56 107.438C1209.56 106.334 1210.46 105.438 1211.56 105.438H1220.48C1221.59 105.438 1222.48 106.334 1222.48 107.438C1222.48 108.543 1221.59 109.438 1220.48 109.438H1211.56C1210.46 109.438 1209.56 108.543 1209.56 107.438Z" fill="white"/>
</svg>
